<?xml version="1.0" encoding="UTF-8"?>
<svg fill="none" viewBox="0 0 64 64" xmlns="http://www.w3.org/2000/svg">
<path d="m20.793 13.566c-5e-4 0 3e-4 -0.0047 0.0036-0.0142-0.0015 0.0095-0.0032 0.0142-0.0036 0.0142zm0.0202-0.0521c0.0312-0.0617 0.1066-0.1781 0.2804-0.3493 0.379-0.3733 1.0641-0.8323 2.126-1.2747 2.1119-0.88 5.2144-1.4871 8.7795-1.4871s6.6676 0.6071 8.7796 1.4871c1.0618 0.4424 1.747 0.9014 2.126 1.2747 0.1737 0.1712 0.2492 0.2876 0.2804 0.3493-0.0312 0.0617-0.1067 0.1781-0.2804 0.3492-0.379 0.3734-1.0642 0.8323-2.126 1.2747-2.112 0.88-5.2145 1.4872-8.7796 1.4872s-6.6676-0.6072-8.7795-1.4872c-1.0619-0.4424-1.747-0.9013-2.126-1.2747-0.1738-0.1711-0.2492-0.2875-0.2804-0.3492zm22.391 0.0499c4e-4 0.0015 8e-4 0.0022 1e-3 0.0022 4e-4 0-3e-4 -0.0047-0.0036-0.0142 9e-4 0.0057 0.0018 0.0097 0.0026 0.012zm-0.0026-0.0879c0.0015-0.0094 0.0031-0.0142 0.0036-0.0142 4e-4 0-3e-4 0.0048-0.0036 0.0142zm-22.405 0c-0.0033-0.0094-0.0041-0.0142-0.0036-0.0142 4e-4 0 0.0021 0.0048 0.0036 0.0142zm0.3717-6.5091c2.9067-1.2112 6.7376-1.8974 10.831-1.8974 4.0933 0 7.9241 0.68624 10.831 1.8974 1.4475 0.60314 2.7931 1.3892 3.8175 2.3984 1.0338 1.0184 1.885 2.422 1.885 4.1487 0 0.0745-0.0016 0.1485-0.0047 0.2219h0.0046v10.776l1e-4 0.0233-1e-4 0.0297v8.3481l1e-4 0.0232c0 1.7267-0.8512 3.1303-1.885 4.1487-1.0244 1.0092-2.37 1.7952-3.8175 2.3984-2.0665 0.861-4.6 1.4567-7.3628 1.7292v2.261c1.8607 0.9153 3.3071 2.5443 3.9821 4.5298h3.6342c1.0544-3.1018 3.9915-5.3334 7.4498-5.3334 4.3446 0 7.8667 3.5221 7.8667 7.8667 0 4.3447-3.5221 7.8667-7.8667 7.8667-3.3584 0-6.2252-2.1045-7.3538-5.0667h-3.8263c-1.1285 2.9622-3.9954 5.0667-7.3537 5.0667-3.3584 0-6.2253-2.1045-7.3538-5.0667h-4.092c-1.1285 2.9622-3.9953 5.0667-7.3537 5.0667-4.3447 0-7.8667-3.522-7.8667-7.8667 0-4.3446 3.522-7.8667 7.8667-7.8667 3.4583 0 6.3954 2.2316 7.4498 5.3334h3.8998c0.6752-1.9863 2.1225-3.6157 3.9842-4.5308v-2.2597c-2.7639-0.2724-5.2984-0.8682-7.3655-1.7295-1.4476-0.6032-2.7931-1.3892-3.8175-2.3984-1.0339-1.0184-1.885-2.422-1.885-4.1487l2e-4 -0.0298v-8.3332l-2e-4 -0.038 2e-4 -0.0298v-10.77h0.0045c-0.0031-0.0734-0.0047-0.1474-0.0047-0.2219 0-1.7267 0.8511-3.1303 1.885-4.1487 1.0244-1.0092 2.3699-1.7952 3.8175-2.3984zm-0.0747 26.319c-0.2088-0.2057-0.2756-0.3323-0.2943-0.3799v-2.7653c0.1821 0.067 0.3661 0.1313 0.5513 0.1931 2.8479 0.9493 6.6125 1.4907 10.648 1.4907 4.0361 0 7.8007-0.5414 10.648-1.4907 0.1853-0.0618 0.3693-0.1261 0.5514-0.1931v2.7651c-0.0186 0.0475-0.0853 0.1742-0.2943 0.3801-0.379 0.3733-1.0642 0.8323-2.126 1.2747-2.112 0.88-5.2145 1.4871-8.7796 1.4871s-6.6676-0.6071-8.7795-1.4871c-1.0619-0.4424-1.747-0.9014-2.126-1.2747zm-0.2208-9.0456c-0.028-0.022-0.0523-0.0421-0.0735-0.0602v-4.2779c0.1221 0.0542 0.2452 0.1071 0.369 0.1587 2.9067 1.2112 6.7376 1.8974 10.831 1.8974 4.0933 0 7.9241-0.6862 10.831-1.8974 0.1238-0.0516 0.2469-0.1045 0.369-0.1588v4.278c-0.0212 0.0181-0.0456 0.0382-0.0735 0.0602-0.3677 0.2898-1.065 0.6674-2.1644 1.0339-2.1709 0.7236-5.3397 1.2169-8.962 1.2169s-6.791-0.4933-8.9619-1.2169c-1.0994-0.3665-1.7967-0.7441-2.1644-1.0339zm-7.6728 23.763c-1.3991 0-2.5334 1.1342-2.5334 2.5333s1.1343 2.5333 2.5334 2.5333 2.5333-1.1342 2.5333-2.5333-1.1342-2.5333-2.5333-2.5333zm16.266 2.5333c0-1.3991 1.1342-2.5333 2.5334-2.5333 1.3991 0 2.5333 1.1342 2.5333 2.5333s-1.1342 2.5333-2.5333 2.5333c-1.3992 0-2.5334-1.1342-2.5334-2.5333zm21.067-2.5333c-1.3991 0-2.5333 1.1342-2.5333 2.5333s1.1342 2.5333 2.5333 2.5333 2.5333-1.1342 2.5333-2.5333-1.1342-2.5333-2.5333-2.5333z" clip-rule="evenodd" fill="#918C99" fill-rule="evenodd"/>
</svg>
