<svg width="16" height="16" viewBox="0 0 16 16" fill="none" xmlns="http://www.w3.org/2000/svg">
<path fill-rule="evenodd" clip-rule="evenodd" d="M6.6 2.15698C6.6 1.518 7.118 1 7.75698 1H8.24317C8.88207 1 9.4 1.51793 9.4 2.15683V2.22527C9.4 3.23064 10.6155 3.73414 11.3264 3.02323C11.7671 2.58253 12.4817 2.58253 12.9224 3.02323L12.9762 3.07706C13.417 3.51783 13.417 4.23247 12.9762 4.67324C12.2652 5.38426 12.7687 6.6 13.7743 6.6H13.8429C14.4819 6.6 15 7.11805 15 7.7571V8.24302C15 8.882 14.482 9.4 13.843 9.4H13.7743C12.7689 9.4 12.2654 10.6156 12.9763 11.3265C13.417 11.7672 13.417 12.4818 12.9763 12.9225L12.9224 12.9764C12.4817 13.4171 11.7672 13.4171 11.3265 12.9764C10.6155 12.2655 9.4 12.769 9.4 13.7744V13.8431C9.4 14.482 8.88202 15 8.24305 15H7.7571C7.11805 15 6.6 14.482 6.6 13.8429V13.7744C6.6 12.7688 5.38421 12.2652 4.67315 12.9763C4.23236 13.4171 3.51769 13.4171 3.0769 12.9763L3.02314 12.9225C2.58242 12.4818 2.58242 11.7673 3.02314 11.3265C3.73408 10.6156 3.23057 9.4 2.22515 9.4H2.15683C1.51793 9.4 1 8.88207 1 8.24317V7.75695C1 7.11798 1.51798 6.6 2.15695 6.6H2.22517C3.23072 6.6 3.73431 5.38424 3.02327 4.67321C2.58249 4.23243 2.58249 3.51779 3.02327 3.07701L3.07693 3.02336C3.51772 2.58257 4.23238 2.58257 4.67317 3.02336C5.38422 3.7344 6.6 3.23081 6.6 2.22523V2.15698ZM8 11C9.65685 11 11 9.65685 11 8C11 6.34315 9.65685 5 8 5C6.34315 5 5 6.34315 5 8C5 9.65685 6.34315 11 8 11Z" fill="#918C99"/>
</svg>
