<?xml version="1.0" encoding="UTF-8"?>
<svg fill="none" viewBox="0 0 52 26" xmlns="http://www.w3.org/2000/svg">
<path d="m2.5 0c-1.3807 0-2.5 1.1193-2.5 2.5s1.1193 2.5 2.5 2.5h4.0572c1.3807 0 2.5-1.1193 2.5-2.5s-1.1193-2.5-2.5-2.5h-4.0572zm25 0c1.3807 0 2.5 1.1193 2.5 2.5s-1.1193 2.5-2.5 2.5h-4.0572c-1.3807 0-2.5-1.1193-2.5-2.5s1.1193-2.5 2.5-2.5h4.0572zm24.5 2.5c0-1.3807-1.1193-2.5-2.5-2.5h-4.0572c-1.3807 0-2.5 1.1193-2.5 2.5s1.1193 2.5 2.5 2.5h4.0572c1.3807 0 2.5-1.1193 2.5-2.5zm-38.5 18.5c-1.3807 0-2.5 1.1193-2.5 2.5s1.1193 2.5 2.5 2.5h4c1.3807 0 2.5-1.1193 2.5-2.5s-1.1193-2.5-2.5-2.5h-4zm17.499 2.5c0-1.3807 1.1193-2.5 2.5-2.5h4c1.3807 0 2.5 1.1193 2.5 2.5s-1.1193 2.5-2.5 2.5h-4c-1.3807 0-2.5-1.1193-2.5-2.5zm-28.499-16.5c-1.3807 0-2.5 1.1193-2.5 2.5 0 1.3807 1.1193 2.5 2.5 2.5h8.7906c1.3807 0 2.5-1.1193 2.5-2.5 0-1.3807-1.1193-2.5-2.5-2.5h-8.7906zm33.5 2.5c0 1.3807-1.1193 2.5-2.5 2.5h-15c-1.3807 0-2.5-1.1193-2.5-2.5 0-1.3807 1.1193-2.5 2.5-2.5h15c1.3807 0 2.5 1.1193 2.5 2.5zm13.5-2.5c1.3807 0 2.5 1.1193 2.5 2.5 0 1.3807-1.1193 2.5-2.5 2.5h-8.7906c-1.3807 0-2.5-1.1193-2.5-2.5 0-1.3807 1.1193-2.5 2.5-2.5h8.7906zm-45.5 9.5c0-1.3807 1.1193-2.5 2.5-2.5h15c1.3807 0 2.5 1.1193 2.5 2.5s-1.1193 2.5-2.5 2.5h-15c-1.3807 0-2.5-1.1193-2.5-2.5zm26.5-2.5c-1.3807 0-2.5 1.1193-2.5 2.5s1.1193 2.5 2.5 2.5h15c1.3807 0 2.5-1.1193 2.5-2.5s-1.1193-2.5-2.5-2.5h-15z" clip-rule="evenodd" fill="#EDEAF4" fill-rule="evenodd"/>
</svg>
