<svg width="16" height="16" viewBox="0 0 16 16" fill="none" xmlns="http://www.w3.org/2000/svg">
<path fill-rule="evenodd" clip-rule="evenodd" d="M3 4.5C3 4.49471 3.00026 4.47614 3.01949 4.43698C3.0405 4.39422 3.08484 4.32641 3.17329 4.23928C3.35589 4.0594 3.67141 3.85138 4.14197 3.65531C5.07874 3.26499 6.44218 3 8 3C9.55783 3 10.9213 3.26499 11.858 3.65531C12.3286 3.85138 12.6441 4.0594 12.8267 4.23928C12.9152 4.32641 12.9595 4.39422 12.9805 4.43698C12.9997 4.47614 13 4.49471 13 4.5C13 4.50529 12.9997 4.52386 12.9805 4.56302C12.9595 4.60578 12.9152 4.67359 12.8267 4.76072C12.6441 4.9406 12.3286 5.14862 11.858 5.34469C10.9213 5.73501 9.55783 6 8 6C6.44218 6 5.07874 5.73501 4.14197 5.34469C3.67141 5.14862 3.35589 4.9406 3.17329 4.76072C3.08484 4.67359 3.0405 4.60578 3.01949 4.56302C3.00026 4.52386 3 4.50529 3 4.5ZM1 4.5C1 3.80647 1.34157 3.23628 1.76973 2.8145C2.19436 2.39618 2.75752 2.0655 3.37274 1.80916C4.60755 1.29465 6.24412 1 8 1C9.75588 1 11.3924 1.29465 12.6273 1.80916C13.2425 2.0655 13.8056 2.39618 14.2303 2.8145C14.6584 3.23628 15 3.80647 15 4.5V9V12.5C15 13.1935 14.6584 13.7637 14.2303 14.1855C13.8056 14.6038 13.2425 14.9345 12.6273 15.1908C11.3924 15.7053 9.75588 16 8 16C6.24412 16 4.60755 15.7053 3.37274 15.1908C2.75752 14.9345 2.19436 14.6038 1.76973 14.1855C1.34157 13.7637 1 13.1935 1 12.5V9V4.5ZM3 8.91233V7.02288C3.12154 7.0821 3.24604 7.13805 3.37274 7.19084C4.60755 7.70535 6.24412 8 8 8C9.75588 8 11.3924 7.70535 12.6273 7.19084C12.754 7.13805 12.8785 7.0821 13 7.02288V8.91233C12.9823 8.93121 12.9537 8.95822 12.9095 8.99308C12.7311 9.13365 12.4111 9.30398 11.9264 9.46553C10.9675 9.78515 9.57928 10 8 10C6.42072 10 5.03245 9.78515 4.07359 9.46553C3.58893 9.30398 3.26885 9.13365 3.09048 8.99308C3.04625 8.95822 3.01773 8.93121 3 8.91233ZM3 11.2012V12.5C3 12.5053 3.00026 12.5239 3.01949 12.563C3.0405 12.6058 3.08484 12.6736 3.17329 12.7607C3.35589 12.9406 3.67141 13.1486 4.14197 13.3447C5.07874 13.735 6.44218 14 8 14C9.55783 14 10.9213 13.735 11.858 13.3447C12.3286 13.1486 12.6441 12.9406 12.8267 12.7607C12.9152 12.6736 12.9595 12.6058 12.9805 12.563C12.9997 12.5239 13 12.5053 13 12.5V11.2012C12.8565 11.259 12.709 11.3128 12.5589 11.3629C11.3462 11.7671 9.73443 12 8 12C6.26557 12 4.65384 11.7671 3.44113 11.3629C3.29098 11.3128 3.14348 11.259 3 11.2012Z" fill="#918C99"/>
</svg>
