<svg width="16" height="16" viewBox="0 0 16 16" fill="none" xmlns="http://www.w3.org/2000/svg">
<path d="M13 7.25C13.4142 7.25 13.75 7.58579 13.75 8C13.75 8.41421 13.4142 8.75 13 8.75V7.25ZM3 8.75C2.58579 8.75 2.25 8.41421 2.25 8C2.25 7.58579 2.58579 7.25 3 7.25V8.75ZM13 8.75H7V7.25H13V8.75ZM5 8.75H3V7.25H5V8.75Z" fill="#EDE8F2"/>
<path fill-rule="evenodd" clip-rule="evenodd" d="M6 7.33333C6.36819 7.33333 6.66667 7.63181 6.66667 8C6.66667 8.36819 6.36819 8.66667 6 8.66667C5.63181 8.66667 5.33333 8.36819 5.33333 8C5.33333 7.63181 5.63181 7.33333 6 7.33333ZM8 8C8 6.89543 7.10457 6 6 6C4.89543 6 4 6.89543 4 8C4 9.10457 4.89543 10 6 10C7.10457 10 8 9.10457 8 8Z" fill="#EDE8F2"/>
<path d="M3 3.25C2.58579 3.25 2.25 3.58579 2.25 4C2.25 4.41421 2.58579 4.75 3 4.75V3.25ZM13 4.75C13.4142 4.75 13.75 4.41421 13.75 4C13.75 3.58579 13.4142 3.25 13 3.25V4.75ZM3 4.75H9V3.25H3V4.75ZM11 4.75H13V3.25H11V4.75Z" fill="#EDE8F2"/>
<path fill-rule="evenodd" clip-rule="evenodd" d="M10 3.33333C9.63181 3.33333 9.33333 3.63181 9.33333 4C9.33333 4.36819 9.63181 4.66667 10 4.66667C10.3682 4.66667 10.6667 4.36819 10.6667 4C10.6667 3.63181 10.3682 3.33333 10 3.33333ZM8 4C8 2.89543 8.89543 2 10 2C11.1046 2 12 2.89543 12 4C12 5.10457 11.1046 6 10 6C8.89543 6 8 5.10457 8 4Z" fill="#EDE8F2"/>
<path d="M3 11.25C2.58579 11.25 2.25 11.5858 2.25 12C2.25 12.4142 2.58579 12.75 3 12.75V11.25ZM13 12.75C13.4142 12.75 13.75 12.4142 13.75 12C13.75 11.5858 13.4142 11.25 13 11.25V12.75ZM3 12.75H9V11.25H3V12.75ZM11 12.75H13V11.25H11V12.75Z" fill="#EDE8F2"/>
<path fill-rule="evenodd" clip-rule="evenodd" d="M10 11.3333C9.63181 11.3333 9.33333 11.6318 9.33333 12C9.33333 12.3682 9.63181 12.6667 10 12.6667C10.3682 12.6667 10.6667 12.3682 10.6667 12C10.6667 11.6318 10.3682 11.3333 10 11.3333ZM8 12C8 10.8954 8.89543 10 10 10C11.1046 10 12 10.8954 12 12C12 13.1046 11.1046 14 10 14C8.89543 14 8 13.1046 8 12Z" fill="#EDE8F2"/>
</svg>
