<?xml version="1.0" encoding="UTF-8"?>
<svg fill="none" viewBox="0 0 25 24" xmlns="http://www.w3.org/2000/svg">
<path d="m5 6.75c0-0.00794 3.9e-4 -0.03579 0.02924-0.09453 0.0315-0.06414 0.09803-0.16586 0.2307-0.29655 0.27389-0.26982 0.74717-0.58185 1.453-0.87596 1.4052-0.58547 3.4503-0.98296 5.787-0.98296s4.3819 0.39749 5.787 0.98296c0.7059 0.29411 1.1792 0.60614 1.4531 0.87596 0.1326 0.13069 0.1992 0.23241 0.2307 0.29655 0.0288 0.05874 0.0292 0.08659 0.0292 0.09453s-4e-4 0.03579-0.0292 0.09453c-0.0315 0.06414-0.0981 0.16586-0.2307 0.29655-0.2739 0.26982-0.7472 0.58185-1.4531 0.87596-1.4051 0.58547-3.4503 0.98296-5.787 0.98296s-4.3819-0.39749-5.787-0.98296c-0.70585-0.29411-1.1791-0.60614-1.453-0.87596-0.13267-0.13069-0.1992-0.23241-0.2307-0.29655-0.02885-0.05874-0.02924-0.08659-0.02924-0.09453zm-3 0c0-1.0403 0.51235-1.8956 1.1546-2.5282 0.63696-0.62748 1.4817-1.1235 2.4045-1.508 1.8522-0.77175 4.307-1.2137 6.9409-1.2137 2.6338 0 5.0887 0.44198 6.9409 1.2137 0.9228 0.38452 1.7676 0.88054 2.4045 1.508 0.6423 0.63267 1.1546 1.488 1.1546 2.5282v12c0 1.0403-0.5123 1.8956-1.1546 2.5283-0.6369 0.6274-1.4817 1.1235-2.4045 1.508-1.8522 0.7717-4.3071 1.2137-6.9409 1.2137-2.6338 0-5.0887-0.442-6.9409-1.2137-0.92283-0.3845-1.7676-0.8806-2.4045-1.508-0.64224-0.6327-1.1546-1.488-1.1546-2.5283v-12zm3 6.6185v-2.8342c0.1823 0.0889 0.36905 0.1728 0.55912 0.252 1.8522 0.7717 4.307 1.2137 6.9409 1.2137 2.6338 0 5.0887-0.442 6.9409-1.2137 0.19-0.0792 0.3768-0.1631 0.5591-0.252v2.8342c-0.0266 0.0283-0.0694 0.0688-0.1357 0.1211-0.2676 0.2109-0.7477 0.4664-1.4747 0.7087-1.4383 0.4794-3.5207 0.8017-5.8896 0.8017s-4.4513-0.3223-5.8896-0.8017c-0.72699-0.2423-1.2071-0.4978-1.4746-0.7087-0.06635-0.0523-0.10913-0.0928-0.13573-0.1211zm0 3.4333v1.9482c0 0.0079 3.9e-4 0.0358 0.02924 0.0945 0.0315 0.0642 0.09803 0.1659 0.2307 0.2966 0.27389 0.2698 0.74717 0.5818 1.453 0.8759 1.4052 0.5855 3.4503 0.983 5.787 0.983s4.3819-0.3975 5.787-0.983c0.7059-0.2941 1.1792-0.6061 1.4531-0.8759 0.1326-0.1307 0.1992-0.2324 0.2307-0.2966 0.0288-0.0587 0.0292-0.0866 0.0292-0.0945v-1.9482c-0.2152 0.0868-0.4365 0.1675-0.6617 0.2425-1.8191 0.6064-4.2367 0.9557-6.8383 0.9557-2.6016 0-5.0192-0.3493-6.8383-0.9557-0.22523-0.075-0.44647-0.1557-0.6617-0.2425z" clip-rule="evenodd" fill="#918C99" fill-rule="evenodd"/>
</svg>
