<?xml version="1.0" encoding="utf-8"?>
      <svg viewBox="0 0 500 500" xmlns="http://www.w3.org/2000/svg">
        <path d="M 407.561 237 C 406.18 237 405.061 238.119 405.061 239.5 C 405.061 240.881 406.18 242 407.561 242 L 411.618 242 C 412.998 242 414.118 240.881 414.118 239.5 C 414.118 238.119 412.998 237 411.618 237 L 407.561 237 Z" clip-rule="evenodd" fill="#EDEAF4" fill-rule="evenodd" style="" class="gw-top-rank gw-rank" />
        <path d="M 432.561 237 C 433.941 237 435.061 238.119 435.061 239.5 C 435.061 240.881 433.941 242 432.561 242 L 428.503 242 C 427.123 242 426.003 240.881 426.003 239.5 C 426.003 238.119 427.123 237 428.503 237 L 432.561 237 Z" clip-rule="evenodd" fill="#EDEAF4" fill-rule="evenodd" class="gw-top-rank gw-rank"/>
        <path d="M 457.061 239.5 C 457.061 238.119 455.941 237 454.561 237 L 450.503 237 C 449.123 237 448.003 238.119 448.003 239.5 C 448.003 240.881 449.123 242 450.503 242 L 454.561 242 C 455.941 242 457.061 240.881 457.061 239.5 Z" clip-rule="evenodd" fill="#EDEAF4" fill-rule="evenodd" class="gw-top-rank gw-rank"/>
        <path d="M 407.561 244 C 406.18 244 405.061 245.119 405.061 246.5 C 405.061 247.881 406.18 249 407.561 249 L 416.351 249 C 417.732 249 418.851 247.881 418.851 246.5 C 418.851 245.119 417.732 244 416.351 244 L 407.561 244 Z" clip-rule="evenodd" fill="#EDEAF4" fill-rule="evenodd" class="gw-second-rank gw-rank"/>
        <path d="M 441.061 246.5 C 441.061 247.881 439.941 249 438.561 249 L 423.561 249 C 422.18 249 421.061 247.881 421.061 246.5 C 421.061 245.119 422.18 244 423.561 244 L 438.561 244 C 439.941 244 441.061 245.119 441.061 246.5 Z" clip-rule="evenodd" fill="#EDEAF4" fill-rule="evenodd" class="gw-second-rank gw-rank"/>
          <path d="M 454.561 244 C 455.941 244 457.061 245.119 457.061 246.5 C 457.061 247.881 455.941 249 454.561 249 L 445.77 249 C 444.389 249 443.27 247.881 443.27 246.5 C 443.27 245.119 444.389 244 445.77 244 L 454.561 244 Z" clip-rule="evenodd" fill="#EDEAF4" fill-rule="evenodd" class="gw-second-rank gw-rank"/>
        <path d="M 409.061 253.5 C 409.061 252.119 410.18 251 411.561 251 L 426.561 251 C 427.941 251 429.061 252.119 429.061 253.5 C 429.061 254.881 427.941 256 426.561 256 L 411.561 256 C 410.18 256 409.061 254.881 409.061 253.5 Z" clip-rule="evenodd" fill="#EDEAF4" fill-rule="evenodd" class="gw-third-rank gw-rank"/>
        <path d="M 435.561 251 C 434.18 251 433.061 252.119 433.061 253.5 C 433.061 254.881 434.18 256 435.561 256 L 450.561 256 C 451.941 256 453.061 254.881 453.061 253.5 C 453.061 252.119 451.941 251 450.561 251 L 435.561 251 Z" clip-rule="evenodd" fill="#EDEAF4" fill-rule="evenodd" style="" class="gw-third-rank gw-rank"/>
        <path d="M 418.561 258 C 417.18 258 416.061 259.119 416.061 260.5 C 416.061 261.881 417.18 263 418.561 263 L 422.561 263 C 423.941 263 425.061 261.881 425.061 260.5 C 425.061 259.119 423.941 258 422.561 258 L 418.561 258 Z" clip-rule="evenodd" fill="#EDEAF4" fill-rule="evenodd" class="gw-bottom-rank gw-rank"/>
        <path d="M 436.06 260.5 C 436.06 259.119 437.179 258 438.56 258 L 442.56 258 C 443.94 258 445.06 259.119 445.06 260.5 C 445.06 261.881 443.94 263 442.56 263 L 438.56 263 C 437.179 263 436.06 261.881 436.06 260.5 Z" clip-rule="evenodd" fill="#EDEAF4" fill-rule="evenodd" class="gw-bottom-rank gw-rank"/>
      </svg>
